<svg width="170" height="41" viewBox="0 0 170 41" fill="none" xmlns="http://www.w3.org/2000/svg">
<path d="M98.883 33.1469C96.947 33.1469 95.482 32.6022 94.489 31.5127C93.497 30.3991 93 28.8133 93 26.7554V25.3028H96.777V27.046C96.777 28.6923 97.467 29.5154 98.847 29.5154C99.525 29.5154 100.033 29.3217 100.372 28.9344C100.735 28.5228 100.917 27.8691 100.917 26.9733C100.917 25.9081 100.675 24.976 100.191 24.1771C99.707 23.3539 98.811 22.3734 97.503 21.2355C95.857 19.7829 94.707 18.4756 94.053 17.3135C93.4 16.1272 93.073 14.7957 93.073 13.3188C93.073 11.3094 93.581 9.75995 94.598 8.6705C95.615 7.55683 97.092 7 99.029 7C100.941 7 102.382 7.55683 103.35 8.6705C104.343 9.75995 104.839 11.3336 104.839 13.3915V14.4446H101.062V13.1373C101.062 12.2657 100.893 11.6362 100.554 11.2489C100.215 10.8373 99.719 10.6315 99.065 10.6315C97.733 10.6315 97.068 11.4426 97.068 13.0646C97.068 13.9846 97.31 14.8441 97.794 15.643C98.302 16.4419 99.21 17.4103 100.518 18.5482C102.188 20.0008 103.338 21.3203 103.968 22.5066C104.597 23.6929 104.912 25.0849 104.912 26.6828C104.912 28.7649 104.391 30.3627 103.35 31.4764C102.333 32.5901 100.844 33.1469 98.883 33.1469Z" fill="#4F46E5"/>
<path fill-rule="evenodd" clip-rule="evenodd" d="M20.6841 40.138C31.7298 40.138 40.6841 31.1837 40.6841 20.138C40.6841 9.09237 31.7298 0.138062 20.6841 0.138062C9.63837 0.138062 0.684082 9.09237 0.684082 20.138C0.684082 31.1837 9.63837 40.138 20.6841 40.138ZM26.9234 9.4549C27.2271 8.37611 26.1802 7.73819 25.2241 8.41936L11.8772 17.9276C10.8403 18.6663 11.0034 20.138 12.1222 20.138H15.6368V20.1108H22.4866L16.9053 22.0801L14.4448 30.8212C14.1411 31.9 15.1879 32.5379 16.1441 31.8567L29.491 22.3485C30.5279 21.6098 30.3647 20.138 29.246 20.138H23.9162L26.9234 9.4549Z" fill="#5333D1"/>
<path d="M53 7H56.9947V28.789H63.5677V32.4206H53V7Z" fill="#4F46E5"/>
<path d="M70 7H75.702L78.244 25.1938H78.316L80.859 7H86.56V32.4206H82.783V13.1736H82.711L79.805 32.4206H76.464L73.559 13.1736H73.487V32.4206H70V7Z" fill="#4F46E5"/>
</svg>
